<svg width="47" height="47" viewBox="0 0 47 47" fill="none" xmlns="http://www.w3.org/2000/svg">
<path d="M23.5 0C10.5182 0 0 10.5182 0 23.5C0 36.4818 10.5182 47 23.5 47C36.4818 47 47 36.4818 47 23.5C47.0215 10.5182 36.4818 0 23.5 0ZM24.8708 44.2799C13.3891 44.2799 4.09096 34.9817 4.09096 23.5C4.09096 12.0183 13.3891 2.72012 24.8708 2.72012C36.3525 2.72012 45.6507 12.0183 45.6507 23.5C45.6507 34.9817 36.3525 44.2799 24.8708 44.2799ZM13.7964 6.68379C4.50025 12.0398 1.32971 23.9073 6.68379 33.2035C12.0398 42.4802 23.9289 45.6703 33.2035 40.3162C42.4997 34.9602 45.6703 23.0711 40.3162 13.7965C34.9601 4.49829 23.0926 1.32775 13.7964 6.68379ZM33.0331 37.2749C25.0431 41.8809 14.8461 39.1392 10.2401 31.1688C5.63412 23.1788 8.37578 12.9818 16.3462 8.37579C24.3362 3.76979 34.5332 6.51146 39.1392 14.4819C43.7433 22.4503 41.0231 32.6689 33.0331 37.2749ZM10.2401 15.8312C5.99837 23.1573 8.52658 32.5397 15.8527 36.7599C23.1788 41.0016 32.5612 38.4734 36.8029 31.1473C41.0447 23.8212 38.5165 14.4388 31.1904 10.2186C23.8427 5.99838 14.4603 8.50504 10.2401 15.8312ZM35.389 28.7914C31.8111 34.9817 23.9073 37.1026 17.7151 33.5247C11.5248 29.9468 9.40391 22.043 12.9798 15.8507C16.5557 9.6585 24.4615 7.53958 30.6538 11.1155C36.846 14.6738 38.9669 22.6011 35.389 28.7914ZM11.9321 23.5C11.9321 29.9057 17.1158 35.0894 23.5215 35.0894C29.9272 35.0894 35.1109 29.9057 35.1109 23.5C35.1109 17.0943 29.9272 11.9106 23.5215 11.9106C17.1158 11.9106 11.9321 17.0943 11.9321 23.5ZM32.712 22.1292C32.712 27.2071 28.5995 31.3196 23.5215 31.3196C18.4436 31.3196 14.3311 27.2071 14.3311 22.1292C14.3311 17.0512 18.4436 12.9387 23.5215 12.9387C28.5779 12.9387 32.712 17.0512 32.712 22.1292Z" fill="black"/>
</svg>
